<?xml version="1.0" encoding="UTF-8" standalone="no"?>
<!-- Created with Inkscape (http://www.inkscape.org/) -->

<svg
   width="208mm"
   height="31mm"
   viewBox="0 0 208 31"
   version="1.1"
   id="svg586"
   inkscape:version="1.2.2 (b0a84865, 2022-12-01)"
   sodipodi:docname="fitpulse-text.svg"
   xmlns:inkscape="http://www.inkscape.org/namespaces/inkscape"
   xmlns:sodipodi="http://sodipodi.sourceforge.net/DTD/sodipodi-0.dtd"
   xmlns="http://www.w3.org/2000/svg"
   xmlns:svg="http://www.w3.org/2000/svg">
  <sodipodi:namedview
     id="namedview588"
     pagecolor="#ffffff"
     bordercolor="#000000"
     borderopacity="0.25"
     inkscape:showpageshadow="2"
     inkscape:pageopacity="0.0"
     inkscape:pagecheckerboard="0"
     inkscape:deskcolor="#d1d1d1"
     inkscape:document-units="mm"
     showgrid="false"
     inkscape:zoom="0.3142113"
     inkscape:cx="-646.06207"
     inkscape:cy="316.66589"
     inkscape:window-width="1512"
     inkscape:window-height="847"
     inkscape:window-x="0"
     inkscape:window-y="38"
     inkscape:window-maximized="1"
     inkscape:current-layer="layer1" />
  <defs
     id="defs583" />
  <g
     inkscape:label="Layer 1"
     inkscape:groupmode="layer"
     id="layer1">
    <g
       data-gra="path-name"
       fill-rule=""
       class="tp-name"
       id="g74"
       transform="matrix(1.1854464,0,0,1.0771599,0.48832146,0.51016668)"
       style="fill:#ffffff">
      <g
         id="g72"
         style="fill:#ffffff">
        <g
           id="g70"
           style="fill:#ffffff">
          <path
             d="m 2.65,0 h 5.33 v -11.06 h 13.4 v -4.71 H 7.98 v -6.39 h 14.76 v -5.1 H 2.65 Z m 28.66,-23.05 v -4.21 h -5.3 v 4.21 z M 26.01,0 h 5.26 v -19.47 h -5.26 z m 8.22,-27.26 v 5.1 h 21.65 v -5.1 z m 8.22,8.57 V 0 h 5.26 v -18.69 z m 27.1,9.46 c 7.01,0 9.9,-4.28 9.9,-9.27 0,-4.91 -2.5,-8.76 -9.9,-8.76 H 58.81 V 0 h 5.25 v -9.23 z m -0.89,-13.44 c 3.74,0 5.26,1.48 5.26,4.33 0,2.84 -1.83,4.51 -5.22,4.51 h -4.64 v -8.84 z m 31.23,12.82 h 5.34 V -27.26 H 99.89 Z M 93.82,0.39 c 0,0 0.04,-4.32 0.04,-5.14 -3.74,0 -6.31,-1.99 -6.31,-5.88 v -16.63 h -5.18 v 17.41 c 0,6.97 5.14,10.24 11.45,10.24 z m 21.69,-8.53 v -19.12 h -5.3 V -8.14 Z M 110.21,0 h 19.82 v -5.14 h -19.82 z m 32.52,-23.41 c 3.54,0 6,1.99 6,5.11 h 5.26 c 0,-6.12 -4.33,-9.35 -11.3,-9.35 z m -10.51,3.08 c 0,9.93 16.51,6.35 16.51,12.77 0,2.22 -2.3,3.67 -5.57,3.67 -3.78,0 -6,-1.95 -6,-5.11 h -5.33 c 0,6.47 4.55,9.39 11.45,9.39 6.3,0 10.71,-3.16 10.71,-7.95 0,-9.89 -16.67,-6.89 -16.67,-12.69 z m 45.44,-1.83 v -5.1 h -20.17 v 5.1 z m 0,10.94 v -4.83 h -20.17 v 4.83 z M 157.49,0 h 20.17 v -5.14 h -20.17 z"
             transform="translate(-2.6500001,27.65)"
             id="path68"
             style="fill:#ffffff" />
        </g>
        <!---->
        <!---->
        <!---->
        <!---->
        <!---->
        <!---->
        <!---->
      </g>
    </g>
  </g>
</svg>
