<?xml version="1.0" encoding="UTF-8" standalone="no"?>
<svg
   data-v-0dd9719b=""
   version="1.0"
   width="562"
   height="115"
   viewBox="0 0 562 115"
   preserveAspectRatio="xMidYMid"
   color-interpolation-filters="sRGB"
   id="svg369"
   sodipodi:docname="fitpulse.svg"
   inkscape:version="1.2.2 (b0a84865, 2022-12-01)"
   xmlns:inkscape="http://www.inkscape.org/namespaces/inkscape"
   xmlns:sodipodi="http://sodipodi.sourceforge.net/DTD/sodipodi-0.dtd"
   xmlns="http://www.w3.org/2000/svg"
   xmlns:svg="http://www.w3.org/2000/svg">
  <sodipodi:namedview
     id="namedview371"
     pagecolor="#ffffff"
     bordercolor="#000000"
     borderopacity="0.25"
     inkscape:showpageshadow="2"
     inkscape:pageopacity="0.0"
     inkscape:pagecheckerboard="0"
     inkscape:deskcolor="#d1d1d1"
     showgrid="false"
     inkscape:zoom="0.944"
     inkscape:cx="144.0678"
     inkscape:cy="125"
     inkscape:window-width="1309"
     inkscape:window-height="456"
     inkscape:window-x="0"
     inkscape:window-y="38"
     inkscape:window-maximized="0"
     inkscape:current-layer="svg369" />
  <rect
     data-v-0dd9719b=""
     x="0"
     y="0"
     width="100%"
     height="100%"
     fill="#ffffff"
     fill-opacity="1"
     class="background"
     id="rect287"
     style="fill:none" />
  <g
     data-v-0dd9719b=""
     class="iconmbgsvg"
     transform="translate(82.494995,52.662384)"
     id="g365">
    <g
       opacity="0.55"
       transform="translate(-79.617876,-49.788136)"
       id="g351"
       style="fill:#000000">
      <g
         id="g349">
        <rect
           fill="#000000"
           fill-opacity="0"
           stroke-width="2"
           x="0"
           y="0"
           width="112.5"
           height="107.31046"
           class="image-rect"
           id="rect289" />
        <svg
           x="0"
           y="0"
           width="112.5"
           height="107.31046"
           filtersec="colorsb9792212478"
           class="image-svg-svg primary"
           style="overflow:visible"
           version="1.1"
           id="svg347">
          <svg
             viewBox="0.046825532 -0.029633313 166.98531 159.28172"
             version="1.1"
             id="svg345"
             width="100%"
             height="100%">
            <path
               d="m 118.07,85 a 1.71,1.71 0 0 1 -0.72,1.8 c -2.5,1.78 -5,3.56 -7.48,5.32 -1.09,0.76 -1.78,0.53 -2.21,-0.8 q -3.84,-12 -7.79,-24 a 2.24,2.24 0 0 1 1,-3 c 2.34,-1.59 4.58,-3.3 6.86,-5 1.21,-0.88 2,-0.57 2.46,1.21 0.86,3.13 2,6.17 3,9.24 1.47,4.36 2.85,8.74 4.26,13.12 0.3,0.82 0.48,1.63 0.62,2.11 z"
               fill="#f2920e"
               id="path291" />
            <path
               d="m 103.14,92.31 c -0.07,0.6 -0.52,0.9 -1,1.21 Q 92,101 81.78,108.42 a 1.9,1.9 0 0 1 -2.56,0 c -2.45,-1.85 -4.91,-3.66 -7.36,-5.5 -1.11,-0.83 -0.53,-1.49 0.26,-2.09 2.88,-2.15 5.74,-4.32 8.64,-6.43 3.81,-2.77 7.7,-5.43 11.48,-8.23 a 2.51,2.51 0 0 1 3.49,0 c 2.14,1.66 4.31,3.28 6.46,4.93 0.42,0.33 0.91,0.59 0.95,1.21 z"
               fill="#c8d134"
               id="path293" />
            <path
               d="M 96.89,54.26 H 84.51 A 2.21,2.21 0 0 1 82,52.49 c -0.74,-2.67 -1.59,-5.3 -2.41,-7.94 -0.44,-1.4 -0.12,-2.07 1.51,-2.06 q 12.47,0.07 24.93,0 a 2.11,2.11 0 0 1 2.39,1.77 c 0.75,2.66 1.7,5.26 2.54,7.9 0.59,1.85 0.44,2.07 -1.47,2.08 -4.24,0.03 -8.42,0.02 -12.6,0.02 z"
               fill="#ea357a"
               id="path295" />
            <path
               d="m 61.06,66.62 h -3.89 c -2.1,0 -2.34,-0.32 -1.72,-2.29 q 2,-6.31 4.09,-12.62 c 1.19,-3.64 2.41,-7.27 3.59,-10.92 0.25,-0.79 0.5,-1.4 1.52,-1.37 3,0.11 6,0.18 9,0.2 1.38,0 1.79,0.52 1.36,1.85 q -3.82,11.7 -7.58,23.4 c -0.45,1.41 -1.15,2.19 -2.83,1.85 a 18.06,18.06 0 0 0 -3.53,0 z"
               fill="#b298c8"
               id="path297" />
            <path
               d="m 47.05,79.55 c 1,-3.07 2.06,-6.15 3.13,-9.22 0.31,-0.9 0.93,-0.93 1.67,-0.38 q 10.35,7.58 20.72,15.12 a 1.65,1.65 0 0 1 0.62,2.15 c -1,2.79 -1.89,5.58 -2.8,8.39 -0.38,1.14 -0.88,1.35 -1.91,0.59 -6.76,-5 -13.55,-9.86 -20.31,-14.8 -0.6,-0.4 -1.33,-0.87 -1.12,-1.85 z"
               fill="#7ec9e8"
               id="path299" />
            <path
               d="m 115.32,46 a 2,2 0 0 1 1,-2 c 2.3,-1.63 4.58,-3.28 6.88,-4.91 1.48,-1 1.93,-0.9 2.51,0.85 2.12,6.31 4.17,12.65 6.35,18.95 0.65,1.88 0.48,3.2 -1.32,4.34 -2.09,1.31 -4,2.88 -6,4.29 -1.47,1 -2.08,0.86 -2.63,-0.77 Q 118.85,57.03 115.65,47.3 A 10.19,10.19 0 0 1 115.32,46 Z"
               fill="#f2920e"
               id="path301" />
            <path
               d="m 107.93,115.1 c -1.08,-0.08 -1.91,-1.06 -2.82,-1.72 -1.76,-1.27 -3.41,-2.71 -5.23,-3.9 -1.27,-0.82 -1.41,-1.54 -0.07,-2.5 4.49,-3.24 8.94,-6.54 13.4,-9.83 1.18,-0.87 2.34,-1.78 3.52,-2.66 a 2.24,2.24 0 0 1 3,0.07 c 2.27,1.78 4.61,3.47 6.93,5.2 0.87,0.64 1.2,1.24 0.1,2 -5.77,4.18 -11.51,8.4 -17.26,12.61 a 2.7,2.7 0 0 1 -1.57,0.73 z"
               fill="#c8d134"
               id="path303" />
            <path
               d="m 89.35,33 c -6.36,0 -12.72,-0.07 -19.08,0.31 a 2.56,2.56 0 0 1 -3,-2.22 c -0.72,-2.68 -1.56,-5.32 -2.44,-7.94 -0.43,-1.29 0.12,-1.58 1.23,-1.59 q 10.7,-0.13 21.38,-0.32 a 2,2 0 0 1 2.3,1.68 69.31,69.31 0 0 0 2.33,7.42 c 0.9,2.43 0.71,2.66 -1.82,2.66 z"
               fill="#ea357a"
               id="path305" />
            <path
               d="m 150.31,47 a 2.19,2.19 0 0 1 -1.1,2.12 c -2.36,1.64 -4.76,3.23 -7.13,4.87 -1.26,0.86 -1.84,0.44 -2.27,-0.91 -1.95,-6.18 -3.92,-12.34 -6,-18.48 -0.57,-1.7 -0.45,-2.86 1.17,-3.9 2.27,-1.45 4.42,-3.11 6.61,-4.69 0.93,-0.67 1.68,-0.57 2.08,0.55 0.66,1.82 1.26,3.67 1.86,5.52 Q 147.8,39 150,45.85 c 0.16,0.45 0.25,0.91 0.31,1.15 z"
               fill="#f2920e"
               id="path307" />
            <path
               d="m 145.22,114.05 c -0.06,0.71 -0.65,1.08 -1.15,1.45 q -5.25,3.91 -10.53,7.77 c -1.81,1.31 -3.72,2.5 -5.49,3.87 a 2.11,2.11 0 0 1 -2.88,0.11 q -3.6,-2.7 -7.18,-5.43 c -1,-0.75 -0.8,-1.41 0.14,-2.08 q 8.31,-6 16.61,-12 a 2,2 0 0 1 2.55,-0.07 c 2.58,1.58 4.77,3.66 7.23,5.39 a 1.48,1.48 0 0 1 0.7,0.99 z"
               fill="#c8d134"
               id="path309" />
            <path
               d="m 43.51,50.67 h 4.06 c 1.35,0 1.9,0.49 1.42,1.94 -1.65,5 -3.23,10.11 -4.83,15.16 -0.56,1.74 -1.1,3.49 -1.65,5.23 -0.22,0.72 -0.53,1.26 -1.46,1.23 q -4.5,-0.15 -9,-0.17 c -1.36,0 -1.8,-0.43 -1.36,-1.81 q 3.24,-10 6.37,-20 a 2,2 0 0 1 2.21,-1.57 h 4.25 z"
               fill="#b298c8"
               id="path311" />
            <path
               d="m 70,0.32 h 9.89 a 2.31,2.31 0 0 1 2.61,2 c 0.69,2.62 1.55,5.19 2.4,7.75 0.46,1.41 0,2 -1.44,2 H 63.15 A 2.14,2.14 0 0 1 60.8,10.39 C 60.01,7.67 59.18,4.97 58.29,2.29 57.77,0.78 58.28,0.29 59.71,0.31 63.13,0.34 66.54,0.32 70,0.32 Z"
               fill="#ea357a"
               id="path313" />
            <path
               d="m 49.59,107.92 c 1.13,-3.31 2.17,-6.5 3.32,-9.66 0.43,-1.17 1.16,-0.35 1.67,0 3.12,2.22 6.22,4.48 9.32,6.71 2.4,1.72 4.76,3.48 7.21,5.11 1.45,1 1.9,2 1.21,3.67 -1,2.4 -1.71,4.89 -2.49,7.36 -0.38,1.19 -0.84,1.51 -2,0.68 -5.82,-4.21 -11.7,-8.35 -17.55,-12.51 a 1.31,1.31 0 0 1 -0.69,-1.36 z"
               fill="#7ec9e8"
               id="path315" />
            <path
               d="m 160.27,77.18 a 2,2 0 0 1 -0.81,2 l -7.32,5.25 c -0.9,0.65 -1.55,0.62 -2,-0.54 -0.78,-1.85 -1.33,-3.78 -1.95,-5.68 Q 146.1,71.91 144,65.64 a 2.47,2.47 0 0 1 1.14,-3.4 c 2.39,-1.49 4.64,-3.22 6.91,-4.9 1,-0.7 1.51,-0.7 1.92,0.55 1.94,5.92 3.93,11.83 5.89,17.74 0.14,0.61 0.32,1.24 0.41,1.55 z"
               fill="#f2920e"
               id="path317" />
            <path
               d="m 118.63,133.57 a 2.23,2.23 0 0 1 -1.07,1.36 c -5.14,3.74 -10.31,7.45 -15.44,11.21 a 1.92,1.92 0 0 1 -2.68,0 c -2.13,-1.67 -4.31,-3.27 -6.47,-4.92 -1.73,-1.32 -1.7,-1.79 0.13,-3.1 1.83,-1.31 3.81,-2.76 5.72,-4.14 l 9.43,-6.85 a 1.83,1.83 0 0 1 2.42,-0.07 c 2.31,1.73 4.65,3.43 7,5.16 0.41,0.33 0.92,0.68 0.96,1.35 z"
               fill="#c8d134"
               id="path319" />
            <path
               d="m 20.9,51.34 h 4.42 c 1.21,0 1.59,0.55 1.22,1.68 Q 23.33,63 20.11,72.88 A 1.56,1.56 0 0 1 18.51,74 c -3.14,0.2 -6.24,-0.37 -9.37,-0.32 -0.86,0 -1.1,-0.47 -0.84,-1.29 q 3.21,-9.84 6.39,-19.69 a 1.79,1.79 0 0 1 2,-1.4 c 1.42,0.05 2.83,0 4.25,0 z"
               fill="#b298c8"
               id="path321" />
            <path
               d="m 125.62,77.23 a 1.78,1.78 0 0 1 0.85,-1.58 c 2.35,-2 5,-3.57 7.48,-5.33 1.07,-0.75 1.61,-0.28 2,0.76 l 3.52,10.75 c 0.82,2.52 1.6,5 2.46,7.56 a 1.9,1.9 0 0 1 -0.72,2.47 L 133.76,97 c -0.88,0.61 -1.63,0.7 -2,-0.54 l -6,-18.69 a 4.07,4.07 0 0 1 -0.14,-0.54 z"
               fill="#f2920e"
               id="path323" />
            <path
               d="m 65.59,133.65 c -0.78,2.28 -1.56,4.75 -2.45,7.19 -1.08,2.95 -1.14,3 -3.68,1.15 -5.13,-3.66 -10.23,-7.38 -15.36,-11.05 a 1.61,1.61 0 0 1 -0.72,-2.1 c 1,-2.78 1.9,-5.58 2.8,-8.38 0.39,-1.21 0.91,-1.52 2,-0.71 5.51,4 11,8.07 16.56,12.11 a 1.63,1.63 0 0 1 0.85,1.79 z"
               fill="#7ec9e8"
               id="path325" />
            <path
               d="M 91.83,113.38 H 92 a 61.55,61.55 0 0 1 8.47,6.32 c 0.71,0.65 -0.08,1.28 -0.65,1.71 -2.5,1.87 -5,3.75 -7.52,5.59 -2.52,1.84 -5.2,3.67 -7.76,5.57 a 2,2 0 0 1 -2.8,0 c -2.16,-1.74 -4.45,-3.31 -6.66,-5 -1.47,-1.1 -1.47,-1.6 0,-2.65 L 90.19,113.9 a 2.19,2.19 0 0 1 1.64,-0.52 z"
               fill="#c8d134"
               id="path327" />
            <path
               d="m 112,33 h -9.21 a 2.08,2.08 0 0 1 -2.42,-1.74 c -0.74,-2.73 -1.6,-5.43 -2.46,-8.13 -0.43,-1.35 0.09,-1.89 1.41,-1.89 h 19.3 a 1.7,1.7 0 0 1 1.83,1.33 c 0.91,3 1.84,6 2.75,9 0.43,1.4 -0.51,1.45 -1.46,1.45 z M 101.07,0.32 c 3.06,-0.11 6.42,0.12 9.77,-0.25 2.47,-0.27 2.82,0.13 3.57,2.6 0.75,2.47 1.49,4.71 2.27,7.06 0.49,1.43 0.15,2 -1.47,2 q -9.36,0 -18.71,0.29 A 2.42,2.42 0 0 1 93.65,9.89 C 93,7.36 92.1,4.86 91.27,2.34 c -0.48,-1.47 0,-2.07 1.56,-2 2.65,0.02 5.3,-0.02 8.24,-0.02 z"
               fill="#ea357a"
               id="path329" />
            <path
               d="m 48.26,42.84 c -2.22,0.14 -4.55,-0.51 -6.92,-0.26 -0.86,0.08 -1,-0.37 -0.79,-1.11 q 3.08,-9.42 6.12,-18.84 a 1.66,1.66 0 0 1 1.66,-1.33 l 9.19,0.11 c 1.18,0 1.53,0.45 1.12,1.67 -2,5.75 -3.9,11.51 -5.66,17.32 -0.56,1.86 -1.41,2.73 -3.35,2.45 A 10.18,10.18 0 0 0 48.26,42.84 Z M 24.21,42.49 h -4.42 c -1.16,0 -1.66,-0.44 -1.27,-1.64 l 6,-18.48 a 1.88,1.88 0 0 1 2.05,-1.51 q 4.25,0.07 8.49,0 c 1.35,0 1.63,0.57 1.25,1.76 q -3,9.25 -5.88,18.53 a 1.67,1.67 0 0 1 -1.82,1.32 h -4.42 z"
               fill="#b298c8"
               id="path331" />
            <path
               d="m 17.36,110.66 c 1.06,-3.12 2.07,-6.26 3.21,-9.35 0.36,-1 1.15,-0.54 1.74,-0.11 q 4.05,2.85 8.06,5.73 c 2.59,1.85 5.15,3.73 7.77,5.54 a 1.48,1.48 0 0 1 0.74,1.91 c -1,2.9 -2,5.8 -2.92,8.71 -0.38,1.14 -0.92,1.31 -1.94,0.56 C 28.89,119.89 23.73,116.19 18.57,112.47 18,112 17.22,111.66 17.36,110.66 Z m 7.42,-21.17 c 1,-3 2,-6.21 3.26,-9.33 0.47,-1.22 1.31,-0.25 1.85,0.13 q 6.72,4.88 13.42,9.8 c 2.95,2.17 2.94,2.18 1.8,5.61 -0.7,2.13 -1.45,4.24 -2.11,6.38 -0.38,1.19 -0.91,1.34 -1.9,0.6 C 35.93,98.87 30.75,95.09 25.57,91.29 a 1.63,1.63 0 0 1 -0.79,-1.8 z"
               fill="#7ec9e8"
               id="path333" />
            <path
               d="m 129.16,0 h 3.54 a 2.92,2.92 0 0 1 3.3,2.44 c 1,3.34 2.18,6.61 3.18,9.94 1.25,4.15 0.95,3.2 -2,5.36 -1.7,1.23 -3.46,2.42 -5.19,3.64 -1.3,0.92 -2,0.8 -2.57,-0.69 -0.86,-2.32 -1.56,-4.7 -2.33,-7 Q 125.19,7.83 123.29,2 c -0.42,-1.3 0.19,-1.94 1.45,-2 1.47,-0.06 2.94,0 4.42,0 z"
               fill="#f2920e"
               id="path335" />
            <path
               d="m 167,97.73 a 1.8,1.8 0 0 1 -0.76,1.83 l -10.64,7.6 a 2,2 0 0 1 -2.46,0.16 q -3.57,-2.61 -7.1,-5.26 c -1.12,-0.84 -1.37,-1.52 0,-2.5 5.3,-3.73 10.54,-7.55 15.77,-11.38 1.12,-0.82 1.78,-0.67 2.21,0.65 0.98,3.08 2.04,6.17 2.98,8.9 z"
               fill="#c8d134"
               id="path337" />
            <path
               d="m 38.13,12 h -8 c -2,0 -2.3,-0.49 -1.69,-2.4 0.83,-2.64 1.76,-5.25 2.6,-7.89 A 1.78,1.78 0 0 1 33,0.31 h 13.09 a 1.68,1.68 0 0 1 1.83,1.3 c 0.85,2.7 1.78,5.38 2.58,8.09 0.54,1.82 0.34,1.92 -1.61,2.09 C 45.32,12.11 41.73,12 38.13,12 Z"
               fill="#ea357a"
               id="path339" />
            <path
               d="m 10.14,83.75 h 4.77 c 1.13,0 1.53,0.56 1.13,1.75 Q 13,94.73 10,104 c -0.39,1.22 -0.83,1.69 -2.07,0.74 -2.2,-1.68 -4.5,-3.23 -6.75,-4.85 a 2,2 0 0 1 -1,-2.52 C 1.46,93.47 2.76,89.55 4,85.61 a 2.49,2.49 0 0 1 3,-2 30.65,30.65 0 0 0 3.18,0 z"
               fill="#b298c8"
               id="path341" />
            <path
               d="m 74.72,139.42 a 3,3 0 0 1 1.41,0.77 c 5.25,3.8 10.49,7.62 15.77,11.39 1,0.69 0.95,1.23 0,1.89 q -3.81,2.73 -7.59,5.49 a 1.47,1.47 0 0 1 -1.94,-0.16 q -5.34,-3.92 -10.7,-7.83 a 1.57,1.57 0 0 1 -0.69,-2 c 1,-2.84 1.91,-5.7 2.87,-8.56 0.15,-0.41 0.33,-0.89 0.87,-0.99 z"
               fill="#7ec9e8"
               id="path343" />
          </svg>
        </svg>
        <!---->
      </g>
    </g>
    <g
       transform="matrix(2.410331,0,0,2.4356005,55.084746,-34.254601)"
       id="g361"
       style="fill:#ffffff">
      <g
         data-gra="path-name"
         fill-rule=""
         class="tp-name"
         id="g359"
         style="fill:#ffffff">
        <g
           id="g357"
           style="fill:#ffffff">
          <g
             id="g355"
             style="fill:#ffffff">
            <path
               d="m 2.65,0 h 5.33 v -11.06 h 13.4 v -4.71 H 7.98 v -6.39 h 14.76 v -5.1 H 2.65 Z m 28.66,-23.05 v -4.21 h -5.3 v 4.21 z M 26.01,0 h 5.26 v -19.47 h -5.26 z m 8.22,-27.26 v 5.1 h 21.65 v -5.1 z m 8.22,8.57 V 0 h 5.26 v -18.69 z m 27.1,9.46 c 7.01,0 9.9,-4.28 9.9,-9.27 0,-4.91 -2.5,-8.76 -9.9,-8.76 H 58.81 V 0 h 5.25 v -9.23 z m -0.89,-13.44 c 3.74,0 5.26,1.48 5.26,4.33 0,2.84 -1.83,4.51 -5.22,4.51 h -4.64 v -8.84 z m 31.23,12.82 h 5.34 V -27.26 H 99.89 Z M 93.82,0.39 c 0,0 0.04,-4.32 0.04,-5.14 -3.74,0 -6.31,-1.99 -6.31,-5.88 v -16.63 h -5.18 v 17.41 c 0,6.97 5.14,10.24 11.45,10.24 z m 21.69,-8.53 v -19.12 h -5.3 V -8.14 Z M 110.21,0 h 19.82 v -5.14 h -19.82 z m 32.52,-23.41 c 3.54,0 6,1.99 6,5.11 h 5.26 c 0,-6.12 -4.33,-9.35 -11.3,-9.35 z m -10.51,3.08 c 0,9.93 16.51,6.35 16.51,12.77 0,2.22 -2.3,3.67 -5.57,3.67 -3.78,0 -6,-1.95 -6,-5.11 h -5.33 c 0,6.47 4.55,9.39 11.45,9.39 6.3,0 10.71,-3.16 10.71,-7.95 0,-9.89 -16.67,-6.89 -16.67,-12.69 z m 45.44,-1.83 v -5.1 h -20.17 v 5.1 z m 0,10.94 v -4.83 h -20.17 v 4.83 z M 157.49,0 h 20.17 v -5.14 h -20.17 z"
               transform="translate(-2.6500001,27.65)"
               id="path353"
               style="fill:#ffffff" />
          </g>
          <!---->
          <!---->
          <!---->
          <!---->
          <!---->
          <!---->
          <!---->
        </g>
      </g>
      <!---->
    </g>
  </g>
  <defs
     v-gra="od"
     id="defs367" />
</svg>
